<?xml version="1.0" encoding="UTF-8"?><svg id="Laag_2" xmlns="http://www.w3.org/2000/svg" viewBox="0 0 105.5848 65.6616"><g id="Components"><g id="_8e1b37f3-00be-484d-838b-5c35d51ef08a_4"><path d="M97.5473,50.7476l-13.9454-21.1121c-1.5508-2.1313-1.841-3.002-1.841-3.488,0-.5805.2903-1.2589.8724-1.8394l11.1374-10.8471c6.0041-6.0041,9.8785-6.3922,9.8785-8.618,0-4.2609-2.0351-4.843-9.9764-4.843-8.618,0-11.2336.5821-11.2336,4.843,0,1.1627.8724,2.4215.8724,4.0669,0,1.4529-.6784,3.2923-3.5842,6.1981l-9.7807,9.6845c-3.0999,3.002-3.9706,3.6804-4.9393,3.6804-.7746,0-1.4529-.6784-1.4529-2.3253v-10.0709c0-7.1667,2.4215-9.2002,2.4215-11.1374,0-2.9058-1.9372-4.9393-9.104-4.9393-6.3922,0-8.3294,2.0334-8.3294,4.9393,0,.2568.0269.5161.0717.7876,7.651,5.2409,11.9315,13.8777,11.9315,25.1675,0,12.1574-4.349,21.9421-11.7081,28.0032-.172.6955-.2951,1.2662-.2951,1.8247,0,2.9058,1.9372,4.9393,8.3294,4.9393,7.0689,0,8.9099-2.0334,8.9099-4.9393,0-1.9356-2.2275-3.9706-2.2275-11.1374v-3.8728c0-1.647.4843-2.5177,1.5491-3.5842l3.7766-3.7766c1.2589-1.3567,1.841-1.8394,2.4215-1.8394.6784,0,1.0648.3865,2.0334,1.7415l7.8451,11.5255c2.0334,3.0982,2.6156,5.1333,2.6156,6.6824,0,1.9372-.8724,3.0982-.8724,4.3571,0,4.2625,2.2275,4.843,12.3,4.843,7.9413,0,10.3612-.4843,10.3612-4.843,0-2.2275-3.4863-3.0982-8.0375-10.0709Z"/><path d="M0,60.7224c0-1.9356,1.4529-3.9706,1.4529-11.1374V16.0766C1.4529,8.9099,0,6.8765,0,4.9393,0,2.0334,1.841,0,4.9393,0c2.3253,0,4.9393.3881,7.457.3881,3.6804,0,7.3608-.3881,11.0412-.3881,20.5316,0,32.9278,11.6217,32.9278,30.8944,0,20.8218-12.6881,34.7672-31.5728,34.7672-3.5826,0-7.0689-.3881-10.6531-.3881-3.0982,0-6.1981.3881-9.2002.3881-3.0982,0-4.9393-2.0334-4.9393-4.9393ZM23.1472,56.0734c12.0081,0,18.5944-8.3278,18.5944-24.5984,0-14.5275-6.5862-21.8867-18.7884-21.8867-6.3922,0-7.9413,1.0648-7.9413,4.8414v36.7061c0,3.7766,1.5491,4.9376,8.1353,4.9376Z"/></g></g></svg>