<?xml version="1.0" encoding="UTF-8"?><svg id="Laag_2" xmlns="http://www.w3.org/2000/svg" viewBox="0 0 326.3159 144.8667"><g id="Components"><g id="f6357373-3194-40f0-bc5c-459362d14ed5_4"><path d="M25.1062,124.6497h.8884v7.0641c.7997-1.6881,2.4434-2.6663,4.5763-2.6663,2.9108,0,4.8435,1.911,4.8435,4.8218v6.7762h-.8884v-6.5533c0-2.5105-1.6664-4.1769-4.1769-4.1769-2.6219,0-4.3544,1.6881-4.3544,4.2203v6.5099h-.8884v-15.9957Z"/><path d="M38.3222,134.9796c0-3.3762,2.5549-5.9321,5.9538-5.9321s5.9765,2.5558,5.9765,5.9321c0,3.3782-2.5775,5.9321-5.9765,5.9321s-5.9538-2.5539-5.9538-5.9321ZM49.3197,134.9796c0-2.8872-2.1555-5.0644-5.0437-5.0644s-5.0437,2.1772-5.0437,5.0644c0,2.8891,2.1555,5.0663,5.0437,5.0663s5.0437-2.1772,5.0437-5.0663Z"/><path d="M53.2047,129.3147h.8884v2.7324c.777-1.8212,2.4217-2.9098,4.5763-2.9098h.2672v.9328h-.2672c-2.7994,0-4.5763,1.7995-4.5763,4.5989v5.9765h-.8884v-11.3307Z"/><path d="M61.3347,129.3147h.8884v2.0441c.7326-1.4663,2.1989-2.3113,4.0882-2.3113,2.0431,0,3.532,1.0452,4.1099,2.755.6666-1.7325,2.2216-2.755,4.3327-2.755,2.5992,0,4.3317,1.7118,4.3317,4.3327v7.2652h-.8884v-7.0424c0-2.2226-1.4446-3.6878-3.6878-3.6878-2.3113,0-3.8436,1.488-3.8436,3.7312v6.999h-.8894v-7.0424c0-2.2226-1.4663-3.6878-3.6878-3.6878-2.332,0-3.8653,1.488-3.8653,3.7312v6.999h-.8884v-11.3307Z"/><path d="M81.9935,134.9796c0-3.3762,2.5549-5.9321,5.9538-5.9321s5.9765,2.5558,5.9765,5.9321c0,3.3782-2.5775,5.9321-5.9765,5.9321s-5.9538-2.5539-5.9538-5.9321ZM92.9909,134.9796c0-2.8872-2.1555-5.0644-5.0437-5.0644s-5.0437,2.1772-5.0437,5.0644c0,2.8891,2.1555,5.0663,5.0437,5.0663s5.0437-2.1772,5.0437-5.0663Z"/><path d="M96.1216,134.9796c0-3.3762,2.5549-5.9321,5.9538-5.9321s5.9765,2.5558,5.9765,5.9321c0,3.3782-2.5775,5.9321-5.9765,5.9321s-5.9538-2.5539-5.9538-5.9321ZM107.1191,134.9796c0-2.8872-2.1555-5.0644-5.0437-5.0644s-5.0437,2.1772-5.0437,5.0644c0,2.8891,2.1555,5.0663,5.0437,5.0663s5.0437-2.1772,5.0437-5.0663Z"/><path d="M111.0051,129.3147h.8884v2.3557c.7997-1.6447,2.4434-2.6229,4.5763-2.6229,2.9108,0,4.8435,1.911,4.8435,4.8218v6.7762h-.8884v-6.5533c0-2.5105-1.6664-4.1769-4.1769-4.1769-2.6219,0-4.3544,1.6881-4.3544,4.2203v6.5099h-.8884v-11.3307Z"/><path d="M124.5771,134.1355h5.9982v.8667h-5.9982v-.8667Z"/><path d="M139.0593,136.1135c0-2.4888,1.7995-3.7993,3.5991-4.7991-1.0216-1.2888-1.7325-2.3557-1.7325-3.4877,0-1.556,1.3992-2.7777,3.1771-2.7777,1.7769,0,3.1761,1.2217,3.1761,2.8438,0,1.7325-1.5994,2.6663-3.3545,3.5991l4.7991,6.0652c.2662-.5551.422-1.1773.422-1.8439v-2.3547h.8441v2.3547c0,.9782-.2662,1.8439-.7109,2.5549l1.8883,2.3774h-1.0659l-1.3548-1.7108c-.9555,1.2888-2.5775,1.977-4.311,1.977-3.0656,0-5.376-1.9997-5.376-4.7981ZM144.4579,140.0676c1.5994,0,2.9552-.6666,3.7993-1.7335l-5.1097-6.4202c-1.6664.9338-3.1771,2.0885-3.1771,4.1769,0,2.3103,1.9544,3.9767,4.4875,3.9767ZM143.4364,130.8924c1.5994-.845,2.9769-1.6004,2.9769-2.9996,0-1.1773-1.0225-2.0885-2.3103-2.0885-1.3331,0-2.3113.9111-2.3113,2.0224,0,.9111.6666,1.8212,1.6447,3.0656Z"/><path d="M158.8296,134.9796c0-3.3762,2.4878-5.9321,5.8207-5.9321,2.3774,0,4.2874,1.3114,5.1985,3.2668v-7.6646h.8884v15.9957h-.8884v-2.9996c-.9111,1.9553-2.8211,3.2658-5.1985,3.2658-3.3329,0-5.8207-2.5539-5.8207-5.9321ZM169.8488,134.9796c0-2.8872-2.1772-5.0644-5.0437-5.0644-2.8881,0-5.0427,2.1772-5.0427,5.0644,0,2.8891,2.1545,5.0663,5.0427,5.0663,2.8665,0,5.0437-2.1772,5.0437-5.0663Z"/><path d="M173.7348,134.9796c0-3.3762,2.4878-5.9321,5.8207-5.9321,2.3774,0,4.2874,1.3114,5.1985,3.2668v-2.9996h.8884v11.3307h-.8884v-2.9996c-.9111,1.9553-2.8211,3.2658-5.1985,3.2658-3.3329,0-5.8207-2.5539-5.8207-5.9321ZM184.7539,134.9796c0-2.8872-2.1772-5.0644-5.0437-5.0644-2.8881,0-5.0427,2.1772-5.0427,5.0644,0,2.8891,2.1545,5.0663,5.0427,5.0663,2.8665,0,5.0437-2.1772,5.0437-5.0663Z"/><path d="M189.3509,129.3147h.8884v2.7324c.777-1.8212,2.4217-2.9098,4.5763-2.9098h.2672v.9328h-.2672c-2.7994,0-4.5763,1.7995-4.5763,4.5989v5.9765h-.8884v-11.3307Z"/><path d="M197.4809,129.3147h.8884v2.0441c.7326-1.4663,2.1989-2.3113,4.0882-2.3113,2.0431,0,3.532,1.0452,4.1099,2.755.6666-1.7325,2.2216-2.755,4.3327-2.755,2.5992,0,4.3317,1.7118,4.3317,4.3327v7.2652h-.8884v-7.0424c0-2.2226-1.4446-3.6878-3.6878-3.6878-2.3113,0-3.8436,1.488-3.8436,3.7312v6.999h-.8894v-7.0424c0-2.2226-1.4663-3.6878-3.6878-3.6878-2.332,0-3.8653,1.488-3.8653,3.7312v6.999h-.8884v-11.3307Z"/><path d="M219.7608,137.6015v-7.4654h-2.3103v-.8214h1.5767c.4891,0,.7563-.2672.7563-.7553v-2.5105h.8658v3.2658h3.4887v.8214h-3.4887v7.3323c0,1.4219.9555,2.3547,2.4217,2.3547h1.0669v.8224h-1.1773c-1.978,0-3.1997-1.1773-3.1997-3.0439Z"/><path d="M226.958,124.6497h.8884v7.0641c.7997-1.6881,2.4434-2.6663,4.5763-2.6663,2.9108,0,4.8435,1.911,4.8435,4.8218v6.7762h-.8884v-6.5533c0-2.5105-1.6664-4.1769-4.1769-4.1769-2.6219,0-4.3544,1.6881-4.3544,4.2203v6.5099h-.8884v-15.9957Z"/><path d="M240.174,134.9796c0-3.3762,2.5549-5.9321,5.9538-5.9321s5.9765,2.5558,5.9765,5.9321c0,.1341-.0227.2672-.0227.3786h-10.9748c.1775,2.7324,2.2659,4.7094,5.088,4.7094,2.1328,0,3.9767-1.1103,4.7094-2.7984h.9999c-.8441,2.1772-3.0656,3.6425-5.7092,3.6425-3.466,0-6.0208-2.5539-6.0208-5.9321ZM241.1068,134.5575h10.0646c-.1558-2.5105-2.1782-4.665-5.0437-4.665-2.7324,0-4.8208,1.9553-5.021,4.665Z"/><path d="M254.9904,129.3147h.8884v2.7324c.777-1.8212,2.4217-2.9098,4.5763-2.9098h.2672v.9328h-.2672c-2.7994,0-4.5763,1.7995-4.5763,4.5989v5.9765h-.8884v-11.3307Z"/><path d="M261.4994,134.9796c0-3.3762,2.4878-5.9321,5.8207-5.9321,2.3774,0,4.2874,1.3114,5.1985,3.2668v-2.9996h.8884v11.3307h-.8884v-2.9996c-.9111,1.9553-2.8211,3.2658-5.1985,3.2658-3.3329,0-5.8207-2.5539-5.8207-5.9321ZM272.5185,134.9796c0-2.8872-2.1772-5.0644-5.0437-5.0644-2.8881,0-5.0427,2.1772-5.0427,5.0644,0,2.8891,2.1545,5.0663,5.0427,5.0663,2.8665,0,5.0437-2.1772,5.0437-5.0663Z"/><path d="M277.1155,129.3147h.8884v2.9996c.8884-1.9553,2.8211-3.2668,5.1768-3.2668,3.3319,0,5.8207,2.5558,5.8207,5.9321,0,3.3782-2.4888,5.9321-5.8207,5.9321-2.3557,0-4.2883-1.3105-5.1768-3.2658v7.2209h-.8884v-15.552ZM288.0902,134.9796c0-2.8872-2.1772-5.0644-5.0437-5.0644-2.8881,0-5.0427,2.1772-5.0427,5.0644,0,2.8891,2.1545,5.0663,5.0427,5.0663,2.8665,0,5.0437-2.1772,5.0437-5.0663Z"/><path d="M291.221,134.9796c0-3.3762,2.5549-5.9321,5.9538-5.9321s5.9765,2.5558,5.9765,5.9321c0,.1341-.0227.2672-.0227.3786h-10.9748c.1775,2.7324,2.2659,4.7094,5.088,4.7094,2.1328,0,3.9767-1.1103,4.7094-2.7984h.9999c-.8441,2.1772-3.0656,3.6425-5.7092,3.6425-3.466,0-6.0208-2.5539-6.0208-5.9321ZM292.1538,134.5575h10.0646c-.1558-2.5105-2.1782-4.665-5.0437-4.665-2.7324,0-4.8208,1.9553-5.021,4.665Z"/><path d="M305.9033,136.291v-6.9763h.8894v6.7535c0,2.4001,1.5767,3.9777,3.9767,3.9777,2.4878,0,4.1325-1.5994,4.1325-4.0211v-6.7101h.8884v11.3307h-.8884v-2.2443c-.778,1.5777-2.333,2.5105-4.3771,2.5105-2.7767,0-4.6216-1.8212-4.6216-4.6206Z"/><path d="M320.8755,137.6015v-7.4654h-2.3103v-.8214h1.5777c.4881,0,.7553-.2672.7553-.7553v-2.5105h.8658v3.2658h3.4887v.8214h-3.4887v7.3323c0,1.4219.9555,2.3547,2.4217,2.3547h1.0669v.8224h-1.1773c-1.978,0-3.1997-1.1773-3.1997-3.0439Z"/><path d="M72.8029,95.6909l-6.8761-21.1222c-1.9138-5.883-3.685-6.7345-3.685-8.4354,0-3.0474,1.9138-3.4732,6.5206-3.4732,5.3167,0,6.9463.5663,6.9463,3.4732,0,1.0633-.7792,1.9128-.7792,3.9681,0,1.1347.2129,2.6238.9218,4.7504l2.7643,8.7186c.7089,2.1267.992,2.6217,1.5594,2.6217.6376,0,1.0633-1.2039,1.6296-2.7643l2.694-8.576c.6376-2.0554.7802-3.4019.7802-4.4652,0-2.0554-.6386-3.1187-.6386-4.396,0-2.9048,2.198-3.3306,6.5919-3.3306,5.0336,0,6.7345.5663,6.7345,3.4732,0,1.0633-.7802,1.9128-.7802,3.9681,0,1.1347.2129,2.6951.8505,4.7504l2.8356,8.7186c.5673,1.9841.9218,2.6217,1.5594,2.6217.5673,0,1.0633-1.2039,1.6307-2.7643l2.693-8.576c.7089-2.1267.9218-3.6871.9218-4.7504,0-2.0554-.7792-2.9048-.7792-3.9681,0-2.5524,1.7009-3.4732,5.1741-3.4732,2.9772,0,4.3949,1.0633,4.3949,3.4732,0,1.7009-1.7722,2.5524-3.7574,8.4354l-6.8048,21.1222c-.7792,2.3385-2.3385,3.4732-5.387,3.4732-3.19,0-4.6781-1.2039-5.387-3.4732l-4.3949-13.8927c-.4247-1.4891-.7089-1.8435-1.4178-1.8435-.5663,0-.8505.4971-1.2752,1.8435l-4.3949,13.8927c-.7802,2.3385-2.3396,3.4732-5.3167,3.4732-3.3316,0-4.8197-1.2039-5.5285-3.4732Z"/><path d="M195.9777,95.5504c0-1.4178,1.0623-2.9069,1.0623-8.1523v-12.0512c0-5.2454-1.8425-5.7404-1.8425-8.6473,0-2.4811,1.9851-3.19,4.7494-3.8276,2.2683-.5663,3.8276-.7089,4.2523-.7089,1.4178,0,2.4811,1.1347,2.4811,2.6238v.9207c0,.5663.2129.7802.5673.7802.7792,0,3.2603-4.3247,8.8601-4.3247,4.5365,0,7.3721,1.7009,9.0028,4.396.4247.5663.5663.7781.9207.7781.9218,0,3.7574-5.1741,10.775-5.1741,7.7255,0,12.1917,5.1049,12.1917,13.964v11.271c0,5.2454,1.0633,6.7345,1.0633,8.1523,0,2.1246-1.4178,3.6137-5.9543,3.6137-5.1038,0-6.5216-1.4891-6.5216-3.6137,0-1.4178,1.7009-2.9069,1.7009-8.1523v-10.4908c0-5.9543-1.4881-8.6473-5.0325-8.6473-3.7563,0-6.379,4.0394-6.379,9.1443v9.9937c0,5.2454,1.6296,6.7345,1.6296,8.1523,0,2.1246-1.3465,3.6137-6.5206,3.6137-5.1038,0-6.5216-1.4891-6.5216-3.6137,0-1.4178,1.7009-2.9069,1.7009-8.1523v-10.4908c0-5.9543-1.3465-8.6473-4.891-8.6473-3.8276,0-6.5919,4.2534-6.5919,9.568v9.5701c0,5.2454,1.7009,6.7345,1.7009,8.1523,0,2.1246-1.3465,3.6137-6.5206,3.6137-4.5365,0-5.883-1.4891-5.883-3.6137Z"/><path d="M292.3634,95.5504c0-1.4178,1.0623-2.9069,1.0623-8.1523v-12.0512c0-5.2454-1.8425-5.7404-1.8425-8.6473,0-2.4811,1.9851-3.19,4.7494-3.8276,2.2683-.5663,3.8276-.7089,4.2523-.7089,1.4178,0,2.4811,1.1347,2.4811,2.6238v.9207c0,.8515.2842.992.6386.992.9207,0,3.189-4.5365,9.4977-4.5365,8.1513,0,12.0502,5.1049,12.0502,13.964v11.271c0,5.2454,1.0633,6.7345,1.0633,8.1523,0,2.1246-1.4178,3.6137-5.9543,3.6137-5.1038,0-6.4503-1.4891-6.4503-3.6137,0-1.4178,1.6307-2.9069,1.6307-8.1523v-10.4908c0-5.9543-1.2049-8.6473-5.1751-8.6473-4.2523,0-7.3008,4.8197-7.3008,9.9224v9.2156c0,5.2454,1.7009,6.7345,1.7009,8.1523,0,2.1246-1.3465,3.6137-6.5206,3.6137-4.5365,0-5.883-1.4891-5.883-3.6137Z"/><path d="M108.9063,29.7007c0-8.8612-3.8989-13.9639-12.0492-13.9639-6.3087,0-8.578,4.5365-9.4987,4.5365-.3544,0-.6376-.1427-.6376-.9921v-.9228c0-1.487-1.0633-2.6216-2.4811-2.6216-.4258,0-1.9862.1425-4.2534.7087-2.7642.6376-4.7483,1.3466-4.7483,3.8278,0,2.9068,1.8414,3.4017,1.8414,8.6474v12.0511c0,5.2455-1.0633,6.7325-1.0633,8.1502,0,2.1267,1.3465,3.616,5.883,3.616,5.1762,0,6.5227-1.4893,6.5227-3.616,0-1.4177-1.701-2.9047-1.701-8.1502v-9.2157c0-5.1027,3.0474-9.9224,7.3008-9.9224,3.9682,0,5.1742,2.6929,5.1742,8.6471v10.4909c0,5.2455-1.6297,6.7325-1.6297,8.1502,0,2.1267,1.3465,3.616,6.4493,3.616,4.5365,0,5.9543-1.4893,5.9543-3.616,0-1.4177-1.0633-2.9047-1.0633-8.1502v-11.271Z"/><path d="M126.1233,18.3583c0-1.487-1.0633-2.6216-2.4811-2.6216-.4237,0-1.9841.1425-4.3226.7087-2.695.6376-4.6791,1.3466-4.6791,3.8278,0,2.9068,1.7723,3.4017,1.7723,8.6474v12.0511c0,5.2455-1.6297,6.7325-1.6297,8.1502,0,2.1267,1.3465,3.616,6.4493,3.616,4.5365,0,5.9543-1.4893,5.9543-3.616,0-1.4177-1.0633-2.9047-1.0633-8.1502v-22.6133Z"/><path d="M120.7373.7807c-4.2533,0-6.8771,2.1978-6.8771,5.5283s2.695,5.5286,6.8771,5.5286,6.8038-2.198,6.8038-5.5286-2.6217-5.5283-6.8038-5.5283Z"/><path d="M205.0771,18.8553c0-2.1264-1.2752-2.6216-4.891-2.6216-5.1028,0-6.5206,1.487-6.5206,3.5423,0,1.4891,1.7009,2.907,1.7009,8.1525v9.2847c0,5.0337-2.9069,9.8533-7.0176,9.8533-3.8276,0-5.1028-2.6929-5.1028-8.576v-19.6352c0-2.1264-1.2772-2.6216-4.8217-2.6216-4.5365,0-5.9543,1.487-5.9543,3.5423,0,1.4891,1.0633,2.907,1.0633,8.1525v11.271c0,8.9305,3.9702,13.9639,11.9799,13.9639,6.7345,0,9.7106-5.0334,10.4909-5.0334.2831,0,.4257.1425.6376,1.7722.4258,1.4891,1.0633,3.2612,2.5525,3.2612.7802,0,1.3465-.1427,3.6158-.709,2.9761-.8514,4.891-1.7008,4.891-3.8989,0-2.0553-2.6238-4.394-2.6238-9.4988v-20.2015Z"/><path d="M54.8083,87.9681l-6.8725-8.9341c-.4294-.4939-.9235-1.2673-.9235-1.8472,0-.7729.4296-1.4173,1.3315-2.1907l3.3503-2.985c4.5317-4.0376,7.5813-4.1666,7.5813-5.8846,0-3.0498-1.5677-3.458-7.3665-3.458-6.1853,0-8.0967.3437-8.0967,3.458,0,.8589.5799,1.5677.5799,2.5556,0,1.1383-.4941,2.5556-2.9208,4.7462l-3.1786,3.2c-1.2027,1.2028-1.7826,1.6322-2.5557,1.6322-.4939,0-.9235-.4294-.9235-1.3528V2.5986c0-1.5033-1.0093-2.5986-2.4269-2.5986-.4296,0-1.9758.1505-4.3168.7089-2.7059.6441-4.6819,1.3528-4.6819,3.7584,0,2.899,1.7611,3.3929,1.7611,8.7194v2.9853c0,.5584-.1289.8374-.7088.8374-.6228,0-2.9638-1.2668-6.6577-1.2668C7.2162,15.7425,0,23.6673,0,35.4364c0,10.4161,6.2283,17.7182,14.9478,17.7182,5.6269,0,8.8055-3.0283,10.2014-4.4243v9.9867c-.0215.3222-.043.6229-.043.9021v27.7691c0,5.2619-1.0738,6.7439-1.0738,8.1612,0,2.1262,1.4175,3.6079,5.9706,3.6079,5.0899,0,6.5073-1.4818,6.5073-3.6079,0-1.4173-1.6966-3.5437-1.6966-6.2283v-.4294c0-1.4175.2792-1.9114.7731-2.4914l2.1263-1.9757c.5798-.5799,1.0738-.9881,1.6321-.9881.4296,0,.7088.2792,1.2027.9881l2.2122,2.6846c1.847,2.4911,2.3409,4.467,2.3409,5.6051,0,1.2673-.4939,2.0619-.4939,2.8996,0,3.114,1.6967,3.5434,8.3544,3.5434,5.8846,0,7.5812-.3434,7.5812-3.5434,0-1.6322-1.9113-2.6846-5.7342-7.6458ZM25.1491,37.2191c0,6.099-3.4577,9.8574-7.796,9.8574-4.4672,0-7.0014-4.0588-7.0014-12.349,0-8.6334,2.8994-12.886,8.2256-12.886,4.1021,0,6.5718,1.8257,6.5718,4.1666v11.211Z"/><path d="M70.2821,46.2171c-1.3465,0-1.8439-.7089-1.8439-2.4812v-15.0274c0-8.578-5.4567-12.9718-14.7435-12.9718-5.0317,0-9.073,1.3464-11.766,3.5444-1.7017,1.3465-2.6241,3.0474-2.6241,4.8196,0,1.7011,1.2776,3.6851,4.1818,3.6851,4.3249,0,5.3887-5.9521,10.2084-5.9521,3.4016,0,5.0335,2.4097,5.0335,7.6553,0,1.7008-.4974,2.4097-1.9862,2.4097h-2.3387c-11.6238,0-16.94,3.4731-16.94,10.9858,0,5.9541,4.7481,10.2789,11.2686,10.2789,3.5447,0,6.5232-1.0636,8.7187-3.1189.994-.8514,1.2776-.9918,1.6319-.9918s.7086.2117.9922.778c1.2034,2.1267,3.4016,3.3326,5.8826,3.3326,3.7568,0,6.3093-1.915,6.3093-4.9624,0-1.1346-.8517-1.984-1.9844-1.984ZM58.7282,39.4112c0,4.2533-3.0473,7.6553-6.592,7.6553-2.5525,0-4.3965-1.9128-4.3965-4.8909,0-3.5446,2.1267-4.891,7.2317-4.891h2.5507c.8517,0,1.206.4259,1.206,1.3464v.7803Z"/><path d="M186.2799,87.9728l-6.873-8.9343c-.4294-.4939-.9233-1.2886-.9233-1.8472,0-.7731.408-1.4172,1.3313-2.1905l3.3291-2.9851c4.5531-4.0379,7.603-4.188,7.603-5.8846,0-3.0498-1.5684-3.4794-7.3883-3.4794-6.1635,0-8.0745.3653-8.0745,3.4794,0,.8589.5583,1.5678.5583,2.5556,0,1.1385-.4939,2.5557-2.8997,4.7463l-3.1788,3.2001c-1.2025,1.2029-1.7822,1.6105-2.5552,1.6105-.4939,0-.9233-.4076-.9233-1.331v-22.1211l.2362-34.9857c0-2.835-.6442-4.059-1.8475-4.059-1.3313,0-3.05,2.4052-4.0377,2.4052-.9233,0-5.0254-2.4052-11.1889-2.4052-10.5662,0-17.8042,7.796-17.8042,19.7586,0,10.3517,6.2494,17.6538,15.0334,17.6538,5.6696,0,8.5049-3.6725,9.4926-3.6725.4948,0,.4089.3649.4089,1.6322v36.2737c0,5.2406-1.0745,6.7437-1.0745,8.1612,0,2.1261,1.4181,3.608,5.9497,3.608,5.1113,0,6.5285-1.4819,6.5285-3.608,0-1.4175-1.6963-3.5436-1.6963-6.2496v-.408c0-1.4176.2791-1.9331.773-2.4914l2.1258-1.9758c.5798-.5798,1.0736-1.0095,1.6328-1.0095.4294,0,.7086.3008,1.2025,1.0095l2.2117,2.6847c1.8261,2.4909,2.3414,4.4669,2.3414,5.6049,0,1.2675-.5153,2.0619-.5153,2.8998,0,3.114,1.7178,3.5434,8.3751,3.5434,5.8852,0,7.5816-.3436,7.5816-3.5434,0-1.6322-1.911-2.6847-5.734-7.6458ZM156.8134,37.2132c0,6.0969-3.4732,9.8533-7.7981,9.8533-4.4654,0-7.017-4.0395-7.017-12.3325,0-8.6491,2.9068-12.9004,8.2231-12.9004,4.1111,0,6.592,1.8412,6.592,4.182v11.1975Z"/><path d="M221.7273,35.5124h18.9271c2.3378,0,3.4723-1.4871,3.4723-4.5365,0-9.285-6.3084-15.2392-16.1616-15.2392-10.3479,0-17.0115,7.3007-17.0115,18.5004,0,11.4114,7.1584,18.9263,17.8633,18.9263,5.386,0,9.7816-1.9863,12.4039-5.5286.637-.9229.9913-1.915.9913-2.8354,0-.5686-.2111-1.1349-.5663-1.4893-.425-.3543-.9206-.497-1.5603-.497-.7086,0-1.4154.1427-2.4792.7089-2.4112,1.2774-4.324,1.7723-7.017,1.7723-5.4594,0-9.3584-3.8278-9.3584-9.2137,0-.4258.1423-.5682.4966-.5682ZM227.8935,21.8337c3.6879,0,5.955,2.6929,5.955,7.0153,0,.4258-.1405.5685-.4957.5685h-11.6255c-.3543,0-.4966-.2141-.4966-.5685,0-3.9679,2.7664-7.0153,6.6627-7.0153Z"/><path d="M150.1283,92.6436c-1.3465,0-1.8431-.7089-1.8431-2.4812v-15.0274c0-8.5759-5.4576-12.9719-14.7435-12.9719-5.0326,0-9.073,1.3465-11.766,3.5445-1.7008,1.3465-2.6232,3.0474-2.6232,4.8197,0,1.7009,1.2767,3.687,4.1827,3.687,4.3231,0,5.3869-5.9542,10.2066-5.9542,3.4025,0,5.0335,2.4098,5.0335,7.6553,0,1.7009-.4974,2.4098-1.9853,2.4098h-2.3396c-11.6246,0-16.9409,3.4732-16.9409,10.9857,0,5.9544,4.749,10.279,11.2704,10.279,3.5447,0,6.5214-1.0634,8.7187-3.1188.9922-.8515,1.2767-.9921,1.631-.9921s.7077.2119.9922.7803c1.2051,2.1245,3.4016,3.3306,5.8826,3.3306,3.7577,0,6.3093-1.915,6.3093-4.9624,0-1.1346-.8508-1.984-1.9853-1.984ZM138.5753,85.8377c0,4.2533-3.0491,7.6553-6.5929,7.6553-2.5516,0-4.3938-1.9128-4.3938-4.891,0-3.5424,2.1258-4.8909,7.2291-4.8909h2.5525c.8508,0,1.2051.4258,1.2051,1.3485v.7782Z"/><path d="M286.6269,92.6436c-1.3465,0-1.8422-.7089-1.8422-2.4812v-15.0274c0-8.5759-5.4585-12.9719-14.7444-12.9719-5.0326,0-9.073,1.3465-11.766,3.5445-1.7008,1.3465-2.6223,3.0474-2.6223,4.8197,0,1.7009,1.2758,3.687,4.1818,3.687,4.324,0,5.3869-5.9542,10.2066-5.9542,3.4034,0,5.0335,2.4098,5.0335,7.6553,0,1.7009-.4966,2.4098-1.9844,2.4098h-2.3396c-11.6246,0-16.9418,3.4732-16.9418,10.9857,0,5.9544,4.7499,10.279,11.2712,10.279,3.5447,0,6.5214-1.0634,8.7187-3.1188.9922-.8515,1.2758-.9921,1.6301-.9921.3552,0,.7095.2119.9922.7803,1.2051,2.1245,3.4025,3.3306,5.8835,3.3306,3.7568,0,6.3084-1.915,6.3084-4.9624,0-1.1346-.85-1.984-1.9853-1.984ZM275.0738,85.8377c0,4.2533-3.0482,7.6553-6.5929,7.6553-2.5507,0-4.3938-1.9128-4.3938-4.891,0-3.5424,2.1258-4.8909,7.23-4.8909h2.5507c.8517,0,1.206.4258,1.206,1.3485v.7782Z"/><path d="M310.4256,21.9211c4.1234,1.6953,7.9585,3.8133,9.8238,8.0849,1.6109,3.6891,1.8203,8.4982-.929,11.7133-2.6684,3.1204-7.1842,4.0566-11.0236,4.7404-5.2336.9321-10.5925.9097-15.8904.9027-5.1012-.0067-10.3939.5977-15.4114-.5742-3.9573-.9243-8.2429-3.276-9.8318-7.265-.5345-1.3419-.3763-3.0658-.204-4.4738.1802-1.4731.5155-3.0825,1.4019-4.3053,2.3173-3.1969,5.7372-5.604,9.4003-6.9986,4.7268-1.7996,9.8916-3.0941,14.8958-3.7681,6.0463-.8143,12.0799-.33,17.7685,1.9437.9834.3931,2.153-.4293,2.4113-1.3691.3069-1.1168-.3821-2.0168-1.3691-2.4113-10.8618-4.3415-23.074-2.2589-33.8127,1.4837-4.4868,1.5637-8.4409,4.04-11.527,7.69-2.7746,3.2816-3.6675,7.7841-3.0304,12.0071.6776,4.491,5.0553,8.2454,9.0014,9.9596,5.5489,2.4104,11.6,2.1304,17.5139,2.0232,6.056-.1098,12.0806.0638,18.0964-.8034,4.7802-.6891,10.0993-1.8619,13.7117-5.3094,4.2361-4.0427,4.7964-10.5225,2.7846-15.8003-1.0546-2.7665-2.6841-5.2079-4.9967-7.0812-2.3199-1.8792-5.0023-3.0434-7.7411-4.1694-.9796-.4027-2.155.4363-2.4113,1.3691-.3091,1.1249.3859,2.007,1.3691,2.4113h0Z"/></g></g></svg>